<?xml version="1.0" encoding="UTF-8" standalone="no"?>
<!DOCTYPE svg PUBLIC "-//W3C//DTD SVG 1.1//EN" "http://www.w3.org/Graphics/SVG/1.1/DTD/svg11.dtd">
<svg width="100%" height="100%" viewBox="0 0 1200 1200" version="1.1" xmlns="http://www.w3.org/2000/svg" xmlns:xlink="http://www.w3.org/1999/xlink" xml:space="preserve" xmlns:serif="http://www.serif.com/" style="fill-rule:evenodd;clip-rule:evenodd;stroke-linecap:round;stroke-linejoin:round;stroke-miterlimit:2;">
    <g>
        <path d="M641.838,901.843C662.91,886.196 683.133,869.263 702.386,851.17C738.198,817.517 780.617,774.258 807.491,725.149C829.688,684.589 841.281,640.04 829.792,593.617C818.78,549.125 783.66,510.039 740.599,504.582C690.808,498.271 632.836,545.741 600,585.988C567.164,545.741 509.193,498.271 459.402,504.582C416.34,510.039 381.22,549.125 370.208,593.617C358.719,640.04 370.312,684.589 392.509,725.149C419.383,774.258 461.802,817.517 497.614,851.17C516.867,869.263 537.09,886.196 558.162,901.843L616.394,938.28L852.951,1018.92C925.648,1043.7 1001.16,989.66 1001.16,912.855L1001.16,534.244C1001.16,501.483 986.826,470.364 961.926,449.074L672.82,201.887C630.892,166.038 569.108,166.038 527.18,201.887L238.074,449.074C213.174,470.364 198.838,501.483 198.838,534.244L198.838,912.854C198.838,989.658 274.354,1043.7 347.05,1018.92L583.6,938.276L641.838,901.843Z" style="fill:none;stroke:rgb(181,13,41);stroke-width:36.09px;"/>
    </g>
</svg>
